<?xml version="1.0" encoding="UTF-8"?>
<svg id="Layer_1" data-name="Layer 1" xmlns="http://www.w3.org/2000/svg" viewBox="0 0 47.94507 48.26166">
  <defs>
    <style>
      .cls-1 {
        fill: #8dcfc5;
      }

      .cls-2 {
        fill: #7563aa;
      }
    </style>
  </defs>
  <path class="cls-2" d="M23.96595,48.26166c-.14496,0-.29015-.00128-.43547-.00397-6.38139-.11573-12.35045-2.80941-16.80761-7.5849-2.07398-2.22221-3.71472-4.77433-4.87637-7.5856C.66495,30.22761.04443,27.25688.00223,24.25726c-.07575-5.3918,1.77903-10.79974,5.22253-15.22732C8.62055,4.66397,13.23495,1.63536,18.21771.50187c3.85488-.87677,8.03708-.60089,12.0949.79728,1.66726.57447,2.55339,2.39218,1.9787,4.05946-.57447,1.66727-2.39196,2.55339-4.05946,1.9787-2.97343-1.02453-5.86596-1.22924-8.59775-.6079-7.54083,1.7152-13.35909,9.37504-13.24593,17.43819.11784,8.40101,7.0807,17.51979,17.25793,17.70426.10474.00198.21031.00281.31471.00281,9.34756,0,17.21116-7.55824,17.60045-16.9935.07283-1.76208,1.56182-3.13031,3.32227-3.059,1.76208.07283,3.13159,1.56019,3.05877,3.32227-.1314,3.18619-.8811,6.26483-2.22794,9.15023-1.29704,2.77867-3.09092,5.2618-5.33183,7.38032-2.23893,2.11652-4.81301,3.76428-7.65095,4.89742-2.8079,1.12134-5.7549,1.68878-8.76585,1.68878v.00035l.00024.00012s-.00002,0-.00002,0Z"/>
  <path class="cls-1" d="M23.42866,33.37861c-.81914,0-1.60835-.31493-2.20338-.88192l-7.50423-7.15423c-1.27647-1.21708-1.32475-3.23822-.10779-4.51467,1.21684-1.27647,3.23821-1.32475,4.51468-.10779l5.14385,4.90385,14.43694-15.79593c1.18972-1.30183,3.20969-1.39255,4.51152-.20283,1.30183,1.18972,1.39255,3.20969.20283,4.51152l-16.63717,18.2032c-.57937.63373-1.38928,1.00747-2.24734,1.03704-.03659.00128-.07341.00176-.11001.00176h.00024s-.00012,0-.00012-.00001Z"/>
</svg>
